 http://img109.imageshack.us/img109/8056/thebadpenny2010.jpg

Country.......: USA
Genre.........: Drama, Thriller
Date release..: 2010 [World]
Director......: Todd Bellanca
Writers.......: Sasha Levinson, Todd Bellanca
Duration......: 89 min.
More..........: http://www.imdb.com/title/tt1356392
Trailer.......:

Pilot :
A former American boxer now exiled in Bangkok, is forced to confront his violent past after meeting a mysterious fight fan from his hometown. 

Cats :
Casey T. Evans   	 ...  	Jack
Tom Arnold 	... 	Frank
Nick Faltas 	... 	Marcus
Ling Bai 	... 	Nok
Josh Randall 	... 	Jack Sr.
Lara Phillips 	... 	Lisa Stemmons
Ilia Volok 	... 	Terry Rubelev
Travis Aaron Wade 	... 	Young Uncle Johnny
Sumonta Muangthai 	... 	Saranya
Jim Van Vleck 	... 	Uncle Johnny
Jaqueline Ugarte 	... 	Mai
Alex Veadov 	... 	Vadim
Bruno Gioiello 	... 	Tony
Philip D. Pinto 	... 	Jack Jr.
Frank Stasio 	... 	Carlo 

Data Technical :
!!! SAMPLE !!!
Audio.....: English
Subtitles.: None
Format                           : AVI
Format/Info                      : Audio Video Interleave
File size                        : 700 MiB
Duration                         : 1h 29mn
Overall bit rate                 : 1 099 Kbps
Writing application              : VirtualDubMod 1.5.4.1 (build 2178/release)
Writing library                  : VirtualDubMod build 2178/release
Video
ID                               : 0
Format                           : MPEG-4 Visual
Format profile                   : Advanced Simple@L5
Format settings, BVOP            : Yes
Format settings, QPel            : No
Format settings, GMC             : No warppoints
Format settings, Matrix          : Custom
Codec ID                         : XVID
Codec ID/Hint                    : XviD
Duration                         : 1h 29mn
Bit rate                         : 983 Kbps
Width                            : 608 pixels
Height                           : 352 pixels
Display aspect ratio             : 16:9
Frame rate                       : 25.000 fps
Color space                      : YUV
Chroma subsampling               : 4:2:0
Bit depth                        : 8 bits
Scan type                        : Progressive
Bits/(Pixel*Frame)               : 0.184
Stream size                      : 626 MiB (89%)
Writing library                  : XviD 1.2.1 (UTC 2008-12-04)
Audio
ID                               : 1
Format                           : MPEG Audio
Format version                   : Version 1
Format profile                   : Layer 3
Mode                             : Joint stereo
Mode extension                   : MS Stereo
Codec ID                         : 55
Codec ID/Hint                    : MP3
Duration                         : 1h 29mn
Bit rate mode                    : Variable
Bit rate                         : 103 Kbps
Channel(s)                       : 2 channels
Sampling rate                    : 48.0 KHz
Stream size                      : 65.8 MiB (9%)
Alignment                        : Aligned on interleaves
Interleave, duration             : 24 ms (0.60 video frame)
Interleave, preload duration     : 501 ms

Screen : 
http://img189.imageshack.us/img189/4660/thebadpenny2010s1.jpg 
http://img855.imageshack.us/img855/2406/thebadpenny2010s2.jpg 
http://img838.imageshack.us/img838/3898/thebadpenny2010s3.jpg 
http://img16.imageshack.us/img16/3929/thebadpenny2010s4.jpg 
http://img850.imageshack.us/img850/9843/thebadpenny2010s5.jpg